<?xml version="1.0" standalone="no"?>
<!DOCTYPE svg PUBLIC "-//W3C//DTD SVG 20010904//EN"
 "http://www.w3.org/TR/2001/REC-SVG-20010904/DTD/svg10.dtd">
<svg version="1.0" xmlns="http://www.w3.org/2000/svg"
 width="960.000000pt" height="960.000000pt" viewBox="0 0 960.000000 960.000000"
 preserveAspectRatio="xMidYMid meet">
<metadata>
Created by potrace 1.14, written by Peter Selinger 2001-2017
</metadata>
<g transform="translate(0.000000,960.000000) scale(0.100000,-0.100000)"
fill="#000000" stroke="none">
<path d="M5016 9585 c-317 -81 -498 -419 -384 -723 36 -96 66 -142 141 -212
169 -157 407 -192 620 -89 97 46 197 147 244 244 19 41 36 82 38 92 2 10 4 18
5 18 13 0 19 190 7 240 -5 22 -10 45 -11 50 -1 6 -7 19 -13 30 -6 11 -11 24
-11 28 1 26 -64 121 -122 177 -63 62 -172 130 -209 130 -10 0 -21 3 -25 7 -20
21 -208 26 -280 8z"/>
<path d="M4558 8185 c-2 -2 -24 -5 -50 -8 -166 -20 -325 -211 -312 -376 7 -99
18 -134 66 -207 46 -71 132 -130 223 -153 64 -16 173 -6 238 22 240 107 300
428 112 610 -56 55 -137 95 -215 105 -33 5 -61 8 -62 7z"/>
<path d="M3470 7062 c-107 -13 -204 -91 -235 -188 -44 -141 19 -281 153 -341
53 -23 67 -25 222 -24 91 0 172 -2 180 -4 13 -4 15 -65 13 -481 -1 -262 -4
-483 -7 -490 -3 -8 -2 -14 2 -14 4 0 6 -33 5 -72 -2 -70 -3 -156 -3 -188 0 -8
-1 -355 -3 -770 l-4 -755 -86 -135 c-47 -74 -90 -140 -95 -145 -5 -6 -11 -15
-13 -21 -2 -5 -33 -56 -69 -112 -77 -121 -101 -159 -158 -249 -24 -37 -63 -99
-88 -138 -24 -38 -63 -101 -87 -138 -23 -37 -53 -86 -67 -107 -14 -22 -71
-113 -128 -202 -57 -90 -133 -208 -168 -263 -36 -55 -68 -108 -71 -117 -3 -10
-9 -18 -14 -18 -5 0 -9 -5 -9 -10 0 -6 -5 -16 -10 -23 -6 -7 -51 -77 -102
-157 -50 -80 -123 -196 -162 -258 -39 -62 -78 -124 -86 -137 -8 -13 -40 -63
-70 -111 -30 -47 -62 -97 -70 -110 -8 -13 -67 -106 -132 -206 -112 -177 -171
-278 -162 -278 3 0 0 -9 -5 -19 -24 -44 -36 -233 -20 -298 32 -128 80 -219
158 -300 43 -44 150 -123 167 -123 3 0 20 -7 37 -15 99 -46 11 -44 2527 -44
2216 1 2369 2 2430 18 69 18 179 71 219 106 108 93 187 218 215 344 15 63 15
206 2 265 -11 46 -56 147 -80 180 -21 29 -178 274 -201 314 -5 10 -39 63 -74
117 -35 55 -77 120 -92 145 -16 25 -33 50 -39 57 -5 7 -10 15 -10 19 0 4 -11
22 -25 40 -14 18 -25 36 -25 39 0 4 -13 25 -29 48 -37 54 -124 190 -186 292
-27 44 -53 82 -57 83 -5 2 -8 7 -8 12 0 5 -49 85 -110 180 -60 94 -110 173
-110 176 0 3 -5 10 -10 17 -17 19 -202 310 -208 327 -3 8 -8 17 -11 20 -9 8
-32 44 -251 390 -134 212 -175 277 -190 300 -62 93 -110 172 -110 179 0 5 -4
11 -8 13 -4 2 -17 19 -28 38 -20 35 -20 48 -20 1410 l1 1375 185 2 c175 3 187
4 236 28 61 30 107 74 137 130 30 57 30 183 0 240 -31 60 -79 104 -142 133
l-56 26 -1330 1 c-731 0 -1341 -1 -1355 -3z m1767 -1916 c0 -750 2 -1367 5
-1372 3 -5 2 -18 -2 -29 -9 -26 23 -172 50 -224 17 -34 63 -110 110 -181 6 -8
94 -148 196 -310 102 -162 210 -332 240 -377 30 -46 54 -87 54 -93 0 -5 4 -10
8 -10 5 0 15 -12 23 -27 8 -15 58 -97 112 -181 53 -84 97 -157 97 -162 0 -6 4
-10 9 -10 5 0 16 -15 25 -32 9 -18 68 -113 131 -211 63 -98 115 -183 115 -188
0 -5 5 -9 10 -9 6 0 10 -7 10 -15 0 -8 5 -15 10 -15 6 0 10 -5 10 -10 0 -12
52 -94 63 -98 4 -2 7 -8 7 -14 0 -5 13 -28 29 -51 27 -40 104 -161 146 -231
59 -97 120 -191 127 -194 5 -2 8 -8 8 -12 0 -7 55 -98 110 -180 58 -89 130
-201 130 -205 0 -2 14 -24 30 -48 32 -48 38 -79 18 -94 -15 -11 -4617 -12
-4634 0 -15 9 -25 47 -13 47 5 0 9 7 9 15 0 8 5 15 10 15 6 0 10 4 10 9 0 9
228 374 248 396 5 6 11 15 13 21 2 6 92 148 199 317 107 169 200 315 205 324
6 10 31 50 57 90 26 40 54 85 63 100 18 32 37 62 48 77 11 15 120 186 213 336
43 69 80 127 84 130 4 3 10 12 13 20 4 8 15 27 25 42 9 15 47 75 85 133 37 58
67 110 67 115 0 4 4 10 8 12 6 2 110 162 197 304 17 27 146 232 195 308 55 86
95 152 95 156 1 3 8 28 17 55 9 28 20 68 23 90 5 37 9 258 5 280 -1 6 -2 15
-1 20 3 14 3 288 1 300 -1 6 -2 15 -1 20 1 6 2 89 1 185 0 96 -1 182 -1 190 0
8 0 116 0 240 0 124 0 232 0 240 0 8 0 116 0 240 0 124 0 232 0 240 1 8 1 80
0 160 0 80 0 152 0 160 3 198 1 472 -4 480 -3 5 -2 10 3 10 4 0 7 15 6 34 l-3
34 438 0 438 0 0 -1362z"/>
<path d="M3866 2329 c-40 -11 -57 -29 -128 -137 -35 -54 -66 -98 -70 -100 -5
-2 -8 -7 -8 -12 0 -11 -103 -174 -112 -178 -5 -2 -8 -10 -8 -17 0 -7 -3 -15
-7 -17 -5 -1 -15 -15 -23 -29 -8 -14 -55 -88 -103 -165 -48 -76 -93 -148 -100
-159 -7 -10 -36 -57 -64 -102 -29 -46 -53 -88 -53 -93 0 -4 -3 -10 -7 -12 -11
-4 -63 -86 -63 -98 0 -5 -4 -10 -10 -10 -5 0 -10 -5 -10 -11 0 -5 -18 -37 -40
-69 -22 -32 -40 -64 -40 -69 0 -6 -4 -11 -10 -11 -5 0 -10 -7 -10 -15 0 -8 -3
-15 -7 -15 -10 0 -43 -81 -49 -119 -8 -49 17 -80 79 -99 12 -4 824 -8 1804 -9
l1782 -3 31 27 c19 17 32 40 34 60 4 35 -13 66 -159 293 -49 77 -94 148 -100
157 -5 9 -38 60 -71 112 -34 53 -109 172 -168 265 -59 94 -117 177 -129 185
-35 25 -63 22 -197 -20 -167 -53 -174 -55 -260 -73 -124 -25 -140 -27 -255
-31 -246 -9 -444 66 -901 338 -117 70 -229 134 -250 144 -22 10 -41 20 -44 23
-9 9 -83 43 -120 55 -54 18 -120 24 -154 14z"/>
</g>
</svg>
